<svg xmlns="http://www.w3.org/2000/svg" version="1.1" xmlns:xlink="http://www.w3.org/1999/xlink" xmlns:svgjs="http://svgjs.dev/svgjs" width="1500" height="1500" viewBox="0 0 1500 1500"><rect width="1500" height="1500" fill="#ffffff"></rect><g transform="matrix(0.6666666666666666,0,0,0.6666666666666666,249.39393939393938,438.5856950067477)"><svg viewBox="0 0 396 247" data-background-color="#ffffff" preserveAspectRatio="xMidYMid meet" height="935" width="1500" xmlns="http://www.w3.org/2000/svg" xmlns:xlink="http://www.w3.org/1999/xlink"><g id="tight-bounds" transform="matrix(1,0,0,1,0.2400000000000091,-0.09999999999999432)"><svg viewBox="0 0 395.52 247.2" height="247.2" width="395.52"><g><svg></svg></g><g><svg viewBox="0 0 395.52 247.2" height="247.2" width="395.52"><g transform="matrix(1,0,0,1,75.54432,91.00534271968894)"><svg viewBox="0 0 244.43135999999998 65.18931456062211" height="65.18931456062211" width="244.43135999999998"><g><svg viewBox="0 0 417.5443483668352 111.3581737985486" height="65.18931456062211" width="244.43135999999998"><g><rect width="9.992432870436293" height="111.3581737985486" x="136.96235426489034" y="0" fill="#89939e" opacity="1" stroke-width="0" stroke="transparent" fill-opacity="1" class="rect-yte-0" data-fill-palette-color="primary" rx="1%" id="yte-0" data-palette-color="#89939e"></rect></g><g transform="matrix(1,0,0,1,173.11298836683525,0.27701038258344823)"><svg viewBox="0 0 244.43135999999998 110.80415303338171" height="110.80415303338171" width="244.43135999999998"><g id="textblocktransform"><svg viewBox="0 0 244.43135999999998 110.80415303338171" height="110.80415303338171" width="244.43135999999998" id="textblock"><g><svg viewBox="0 0 244.43135999999998 110.80415303338171" height="110.80415303338171" width="244.43135999999998"><g transform="matrix(1,0,0,1,0,0)"><svg width="244.43135999999998" viewBox="0.65 -35.2 103.33999999999999 46.85" height="110.80415303338171" data-palette-color="#89939e"><path d="M15.65-12.1L13.65-11.4Q13-11.45 12.58-11.75 12.15-12.05 11.85-12.5 11.55-12.95 11.3-13.35L11.3-13.35 2.35-31.55Q2.1-32.05 1.63-32.73 1.15-33.4 0.65-33.9L0.65-33.9Q1-34.3 1.75-34.75 2.5-35.2 3.55-35.2L3.55-35.2Q4.7-35.2 5.28-34.6 5.85-34 6.3-33L6.3-33 15.2-13.9 13.5-13.2 22.25-31.8Q22.75-32.9 22.75-33.55L22.75-33.55Q22.75-33.9 22.65-34.23 22.55-34.55 22.4-34.8L22.4-34.8Q22.85-35 23.33-35.1 23.8-35.2 24.6-35.2L24.6-35.2Q25.6-35.2 26.08-34.63 26.55-34.05 26.6-33.25L26.6-33.25Q26.6-32.75 26.33-32.05 26.05-31.35 25.6-30.65L25.6-30.65 15.65-12.1ZM11.85-13.3L15.85-13.85 15.85-5.7Q15.85-4.25 15.98-2.85 16.1-1.45 16.5-0.35L16.5-0.35Q16.2-0.1 15.63 0.23 15.05 0.55 14.2 0.55L14.2 0.55Q13.2 0.55 12.55-0.05 11.9-0.65 11.9-1.65L11.9-1.65 11.85-13.3ZM48.25 0.5L48.25 0.5Q46.1 0.5 45-0.98 43.9-2.45 43.9-5.7L43.9-5.7 43.9-10.15 44.85-9.7Q44-6.7 42.27-4.38 40.55-2.05 38.25-0.75 35.95 0.55 33.25 0.55L33.25 0.55Q30.3 0.55 28.65-1.03 27-2.6 27-5.25L27-5.25Q27-7.3 28.07-8.9 29.15-10.5 31.02-11.6 32.9-12.7 35.3-13.35L35.3-13.35Q37.4-13.9 39.62-14.1 41.85-14.3 43.7-14.2L43.7-14.2 43.7-15.5Q43.7-19.85 42.25-22.05 40.8-24.25 37.35-24.25L37.35-24.25Q36.15-24.25 34.92-23.88 33.7-23.5 32.92-22.65 32.15-21.8 32.15-20.2L32.15-20.2Q32.15-19.2 32.65-18.13 33.15-17.05 34.3-16.65L34.3-16.65Q33.85-16.1 33.2-15.88 32.55-15.65 31.9-15.65L31.9-15.65Q30.15-15.65 29.15-17 28.15-18.35 28.15-20.05L28.15-20.05Q28.15-23 30.75-24.53 33.35-26.05 37.7-26.05L37.7-26.05Q42.9-26.05 45.32-23.4 47.75-20.75 47.75-15.25L47.75-15.25 47.75-5.25Q47.75-2.6 49.55-2.6L49.55-2.6Q49.95-2.6 50.45-2.85 50.95-3.1 51.2-3.65L51.2-3.65Q51.5-3.25 51.62-2.83 51.75-2.4 51.75-2.1L51.75-2.1Q51.75-1 50.75-0.25 49.75 0.5 48.25 0.5ZM35.05-2.25L35.05-2.25Q36.5-2.25 38.02-3.13 39.55-4 40.85-5.45 42.15-6.9 42.97-8.75 43.8-10.6 43.8-12.6L43.8-12.6Q42.65-12.7 41.22-12.6 39.8-12.5 38.45-12.25 37.1-12 36.05-11.6L36.05-11.6Q33.85-10.8 32.6-9.43 31.35-8.05 31.35-6.1L31.35-6.1Q31.35-4.6 32.2-3.38 33.05-2.15 35.05-2.25ZM58.95 0.55L58.95 0.55Q57.9 0.55 57.25-0.1 56.6-0.75 56.6-1.85L56.6-1.85 56.6-20.3Q56.55-21.75 56.25-22.33 55.95-22.9 55.2-22.9L55.2-22.9Q54.95-22.9 54.55-22.75 54.15-22.6 53.9-22.1L53.9-22.1Q53.3-22.85 53.3-23.7L53.3-23.7Q53.3-24.7 54.1-25.35 54.9-26 56.3-26L56.3-26Q58.2-26 59.2-24.73 60.2-23.45 60.2-20.85L60.2-20.85 60.2-17.35 59.45-16.45Q59.75-19.45 60.97-21.6 62.2-23.75 64.22-24.9 66.25-26.05 68.8-26.05L68.8-26.05Q72.95-26.05 74.9-23.4 76.84-20.75 76.84-15.65L76.84-15.65 76.84-5.7Q76.9-4.4 77.02-2.93 77.15-1.45 77.5-0.35L77.5-0.35Q77.09 0 76.55 0.28 76 0.55 75.2 0.55L75.2 0.55Q74.2 0.55 73.52-0.05 72.84-0.65 72.84-1.65L72.84-1.65 72.84-15.15Q72.8-19.35 71.67-21.53 70.55-23.7 67.65-23.7L67.65-23.7Q66.4-23.7 65.17-23.1 63.95-22.5 62.9-21.13 61.85-19.75 61.2-17.5 60.55-15.25 60.55-12.05L60.55-12.05Q60.55-9.05 60.57-7.1 60.6-5.15 60.65-3.9 60.7-2.65 60.85-1.85 61-1.05 61.25-0.35L61.25-0.35Q60.95-0.1 60.37 0.23 59.8 0.55 58.95 0.55ZM91.59 11.65L91.59 11.65Q89.34 11.65 87.39 11 85.44 10.35 84.27 9.03 83.09 7.7 83.09 5.65L83.09 5.65Q83.09 3.95 84.02 2.95 84.94 1.95 86.19 1.95L86.19 1.95Q87.59 1.95 88.19 2.7L88.19 2.7Q87.44 3.25 87.12 4.03 86.79 4.8 86.79 5.75L86.79 5.75Q86.79 7.15 87.42 8.08 88.04 9 89.17 9.47 90.29 9.95 91.74 9.95L91.74 9.95Q96.04 9.95 98.04 6.8 100.04 3.65 100.04-2.25L100.04-2.25Q100.04-2.95 100.04-3.88 100.04-4.8 100.04-5.65L100.04-5.65Q99.14-2.9 96.99-1.35 94.84 0.2 91.74 0.2L91.74 0.2Q89.04 0.2 87.04-1.07 85.04-2.35 83.97-5.15 82.89-7.95 82.89-12.4L82.89-12.4Q82.89-14.3 83.19-16.23 83.49-18.15 84.22-19.93 84.94-21.7 86.24-23.08 87.54-24.45 89.52-25.25 91.49-26.05 94.29-26.05L94.29-26.05Q95.99-26.05 97.77-25.75 99.54-25.45 101.19-24.73 102.84-24 103.99-22.75L103.99-22.75 103.99-2.25Q103.99 2.95 102.39 6 100.79 9.05 97.99 10.35 95.19 11.65 91.59 11.65ZM92.79-2L92.79-2Q94.79-2 96.17-2.93 97.54-3.85 98.39-5.35 99.24-6.85 99.64-8.7 100.04-10.55 100.04-12.4L100.04-12.4 100.09-22.35Q99.19-23.3 97.62-23.75 96.04-24.2 94.24-24.2L94.24-24.2Q91.94-24.2 90.54-23.15 89.14-22.1 88.39-20.35 87.64-18.6 87.39-16.43 87.14-14.25 87.14-12L87.14-12Q87.14-6.65 88.52-4.33 89.89-2 92.79-2Z" opacity="1" transform="matrix(1,0,0,1,0,0)" fill="#89939e" class="wordmark-text-0" data-fill-palette-color="primary" id="text-0"></path></svg></g></svg></g></svg></g></svg></g><g transform="matrix(1,0,0,1,0,0.27701038258344823)"><svg viewBox="0 0 110.80415303338171 110.80415303338171" height="110.80415303338171" width="110.80415303338171"><g><svg xmlns="http://www.w3.org/2000/svg" xml:space="preserve" viewBox="0.5 0.5 23 23" x="0" y="0" height="110.80415303338171" width="110.80415303338171" class="icon-icon-0" data-fill-palette-color="accent" id="icon-0"><path d="M19 0.5H5A4.505 4.505 0 0 0 0.5 5v14c0 2.481 2.019 4.5 4.5 4.5h14c2.481 0 4.5-2.019 4.5-4.5V5c0-2.481-2.019-4.5-4.5-4.5m-3 21H8c-2.481 0-4.5-2.019-4.5-4.5s2.019-4.5 4.5-4.5h8c2.481 0 4.5 2.019 4.5 4.5s-2.019 4.5-4.5 4.5m0-10H8c-2.481 0-4.5-2.019-4.5-4.5S5.519 2.5 8 2.5h8c2.481 0 4.5 2.019 4.5 4.5s-2.019 4.5-4.5 4.5" fill="#89939e" data-fill-palette-color="accent"></path><circle cx="8" cy="7" r="2.5" fill="#89939e" data-fill-palette-color="accent"></circle><circle cx="16" cy="17" r="2.5" fill="#89939e" data-fill-palette-color="accent"></circle></svg></g></svg></g></svg></g></svg></g><path d="M202.369 85.005L202.369 27.16 9.489 27.16 9.489 220.04 202.369 220.04 202.369 162.195 196.519 162.195 196.519 214.19 15.339 214.19 15.339 33.01 196.519 33.01 196.519 85.005Z" fill="#89939e" stroke="transparent" data-fill-palette-color="tertiary"></path></svg></g><defs></defs></svg><rect width="395.52" height="247.2" fill="none" stroke="none" visibility="hidden"></rect></g></svg></g></svg>